<svg xmlns="http://www.w3.org/2000/svg" width="22" height="22" viewBox="0 0 22 22"><defs><style>.a{fill:rgba(255,255,255,0);}.b{fill:#fff;}</style></defs><g transform="translate(-30 -157)"><rect class="a" width="22" height="22" transform="translate(30 157)"/><g transform="translate(30.733 160.667)"><path class="b" d="M222.217,559.278c-.195-.5-.381-.947-.549-1.4-.195-.522-.009-.823.522-.921a9.767,9.767,0,0,1,3.514,0c.54.1.726.4.54.912-.168.451-.354.9-.558,1.4.363.115.708.221,1.044.336a8.747,8.747,0,0,1,5.966,7.94c.027.682-.159.885-.832.885q-7.94,0-15.88.009c-.611,0-.814-.212-.8-.832a8.772,8.772,0,0,1,6.55-8.17C221.89,559.385,222.023,559.332,222.217,559.278Zm2.762-1.248h-1.956c.274,1.089.3,1.142,1.16,1.106C224.846,559.1,224.616,558.42,224.979,558.03Z" transform="translate(-214.054 -556.8)"/><path class="b" d="M212.278,701.209h8.976c.133,0,.266,0,.4.009a.539.539,0,0,1,.531.5.553.553,0,0,1-.443.62,1.418,1.418,0,0,1-.434.027H203.046c-.407-.027-.69-.274-.664-.611.035-.4.292-.549.664-.549h3.541c1.885.009,3.788.009,5.692.009Z" transform="translate(-202.38 -688.418)"/></g></g></svg>