<svg xmlns="http://www.w3.org/2000/svg" width="22" height="22" viewBox="0 0 22 22"><defs><style>.a{fill:rgba(255,255,255,0);}.b{fill:#fff;}</style></defs><g transform="translate(-30 -156.902)"><rect class="a" width="22" height="22" transform="translate(30 156.902)"/><g transform="translate(31.46 159.19)"><path class="b" d="M183.452,138.657v4.988c0,.732-.226.955-.958.955-1.345,0-2.69.011-4.035,0-.656,0-.9-.244-.915-.9-.011-1.008.011-2.016-.011-3.024a1.258,1.258,0,0,0-1.087-1.2,1.282,1.282,0,0,0-1.442.838,2,2,0,0,0-.086.626c-.011.9,0,1.8-.011,2.706-.011.722-.237.955-.958.955h-3.981c-.732,0-.958-.233-.958-.955q0-4.982-.011-9.965a1.105,1.105,0,0,1,.463-.944c2.045-1.613,4.078-3.237,6.112-4.85a.848.848,0,0,1,1.291,0c2.012,1.6,4.014,3.2,6.026,4.786a1.277,1.277,0,0,1,.549,1.125c0,1.6.011,3.237.011,4.86Z" transform="translate(-169 -127.587)"/><path class="b" d="M269.5,128.844a3.884,3.884,0,0,1,.882-.658,1.031,1.031,0,0,1,.872.074q3.228,2.5,6.4,5.083a1.049,1.049,0,0,1,.3.69c.022,3.4.011,6.781.011,10.176,0,.626-.247.86-.882.86-.839.011-1.679,0-2.529,0v-4.107c0-2.26-.011-4.52.011-6.781a2.45,2.45,0,0,0-1.012-2.1c-1.184-.913-2.346-1.857-3.519-2.78C269.866,129.162,269.7,129.024,269.5,128.844Z" transform="translate(-258.685 -128.067)"/></g></g></svg>