<svg xmlns="http://www.w3.org/2000/svg" width="22" height="22" viewBox="0 0 22 22"><defs><style>.a{fill:rgba(255,255,255,0);}.b{fill:#fff;}</style></defs><g transform="translate(-30 -157)"><rect class="a" width="22" height="22" transform="translate(30 157)"/><g transform="translate(6 133.758)"><path class="b" d="M135.747,145.745,131.8,141.8a1.047,1.047,0,0,0-1.481,1.481l2.161,2.161H121.047a1.047,1.047,0,0,0,0,2.094h11.432l-2.161,2.161a1.047,1.047,0,0,0,1.481,1.481l3.948-3.948A1.047,1.047,0,0,0,135.747,145.745Z" transform="translate(-91.812 -112.365)"/><path class="b" d="M36.215,40.054A1.047,1.047,0,0,0,35.168,41.1v1.047H26.094V26.094h9.074v1.047a1.047,1.047,0,1,0,2.094,0v-1.4A1.745,1.745,0,0,0,35.517,24H25.745A1.745,1.745,0,0,0,24,25.745V42.5a1.745,1.745,0,0,0,1.745,1.745h9.772A1.745,1.745,0,0,0,37.262,42.5V41.1A1.047,1.047,0,0,0,36.215,40.054Z"/></g></g></svg>