<svg xmlns="http://www.w3.org/2000/svg" width="747.192" height="140" viewBox="0 0 747.192 140"><defs><style>.a{fill:#2f344a;opacity:0.03;}</style></defs><path class="a" d="M74.49-77.357q24.83,1.757,36.481,10.54T122.622-46.09q0,16.336-13.943,25.207T69.906-12.012q-5.539,0-9.359-.176-12.606-.351-24.639-.351-19.673,0-29.414.527v-3.513a35.789,35.789,0,0,0,9.264-1.405,6.3,6.3,0,0,0,4.011-4.04q1.051-2.986,1.051-9.661v-87.127q0-6.675-1.051-9.661a6.3,6.3,0,0,0-4.011-4.04,35.79,35.79,0,0,0-9.264-1.405v-3.513q9.741.527,29.032.527l21.2-.176q3.82-.176,8.786-.176,22.92,0,35.049,7.553t12.128,20.025q0,10.188-9.645,18.971T74.49-77.708ZM63.03-132.865q-5.157,0-7.545,1.23a6.859,6.859,0,0,0-3.342,4.391,35.118,35.118,0,0,0-.955,9.486v39.7H59.4q12.415,0,17.381-7.817t4.966-20.816q0-13.174-4.489-19.674T63.03-132.865ZM64.367-16.052q26.549,0,26.549-30.74,0-13.877-7.64-21.079t-24.066-7.2H51.188v44.442a33.1,33.1,0,0,0,.955,9.31,6.306,6.306,0,0,0,3.724,4.128Q58.637-16.052,64.367-16.052Zm124.723-7.9q15.662,0,25.212-14.053l3.438,1.054a41.719,41.719,0,0,1-13.657,19.41q-9.836,7.992-24.543,7.992-20.246,0-32.184-11.857T135.419-56.454q0-23.714,12.8-36.274t34-12.56q35.908,0,35.908,39H164.451q-.191,2.635-.191,8.256,0,11.593,3.533,19.322t9.168,11.242A22.512,22.512,0,0,0,189.09-23.957ZM181.068-101.6q-6.876,0-11.365,7.817t-5.635,24.153h29.987q.382-13.877-2.96-22.923T181.068-101.6Zm87.1,73.25q0,7.2,2.674,9.925t9.55,2.723v3.689q-19.864-.7-25.594-.7-6.494,0-26.358.7V-15.7q6.685,0,9.454-2.723t2.77-9.925V-128.474q0-8.08-2.77-11.769t-9.454-3.689v-3.689q6.112.527,11.842.527,16.617,0,27.886-2.459Zm58.255-76.939a50.654,50.654,0,0,1,13.37,1.669,34.091,34.091,0,0,1,9.359,3.777,6.536,6.536,0,0,0,3.438,1.23,3.621,3.621,0,0,0,2.961-1.669,10.1,10.1,0,0,0,1.623-4.831h4.011q-.764,8.959-.764,30.916h-4.011q-1.719-11.593-7.544-19.41t-16.9-7.817a14.637,14.637,0,0,0-9.454,2.986,10,10,0,0,0-3.725,8.256A13.886,13.886,0,0,0,323.172-79.9a95.2,95.2,0,0,0,13.752,10.452l5.539,3.689q11.651,8.08,17.19,14.4t5.539,15.809a21.067,21.067,0,0,1-4.871,13.7,30.673,30.673,0,0,1-13.083,9.134,50.12,50.12,0,0,1-18.145,3.162q-10.5,0-17.954-3.689-6.112-2.811-8.786-3.689a3.071,3.071,0,0,0-3.342,1.142,11.661,11.661,0,0,0-2.2,5.006H292.8q.764-10.013.764-35.132h4.011q3.82,32.321,25.785,32.321a14.843,14.843,0,0,0,9.454-3.074q3.915-3.074,3.915-9.4a16.367,16.367,0,0,0-2.388-8.783,27.669,27.669,0,0,0-6.016-6.851q-3.629-2.986-10.887-8.256-8.6-6.324-13.083-10.188a37.028,37.028,0,0,1-7.64-9.134,22.49,22.49,0,0,1-3.152-11.769q0-11.242,9.55-17.742T326.419-105.287Zm89.2,2.459h22.538v3.513H415.616v70.966q0,5.27,2.005,7.466t6.4,2.2q8.213,0,12.988-10.54l3.247,1.581Q433-9.553,414.088-9.553q-12.606,0-19.1-5.972a18.548,18.548,0,0,1-5.444-9.222,63.361,63.361,0,0,1-1.432-15.194V-99.315H372.068v-3.513h16.044v-23.187q15.853,0,27.5-5.621Zm76.973-2.459q21.965,0,34.38,11.506t12.415,36.449q0,24.944-12.415,36.361T492.589-9.553q-21.774,0-34.284-11.418T445.794-57.332q0-24.944,12.511-36.449T492.589-105.287Zm0,3.513q-8.213,0-13.083,10.979t-4.871,33.463q0,22.484,4.871,33.375t13.083,10.891q8.4,0,13.179-10.8t4.775-33.463q0-22.66-4.87-33.551T492.589-101.774Zm129.689-3.513q14.516,0,21.01,6.851a18.623,18.623,0,0,1,4.584,8.607A60.2,60.2,0,0,1,649.209-75.6v47.252q0,7.2,2.769,9.925t9.455,2.723v3.689q-19.1-.7-25.212-.7-5.73,0-24.83.7V-15.7q5.73,0,8.022-2.723t2.292-9.925v-54.63q0-7.2-2.578-10.891t-9.263-3.689a17.7,17.7,0,0,0-13.37,5.885,20.343,20.343,0,0,0-5.539,14.492v48.833q0,7.2,2.292,9.925t8.022,2.723v3.689q-17.572-.7-23.684-.7-5.73,0-26.358.7V-15.7q6.876,0,9.55-2.723t2.674-9.925V-83.681q0-8.08-2.674-11.769t-9.55-3.689v-3.689q6.112.527,11.842.527,17,0,27.886-2.459v15.809Q599.549-105.287,622.278-105.287Zm102.376,81.33q15.662,0,25.212-14.053l3.438,1.054a41.719,41.719,0,0,1-13.656,19.41Q729.811-9.553,715.1-9.553q-20.246,0-32.183-11.857T670.983-56.454q0-23.714,12.8-36.274t34-12.56q35.908,0,35.908,39H700.015q-.191,2.635-.191,8.256,0,11.593,3.534,19.322t9.168,11.242A22.513,22.513,0,0,0,724.654-23.957ZM716.632-101.6q-6.876,0-11.365,7.817t-5.635,24.153H729.62q.382-13.877-2.96-22.923T716.632-101.6Z" transform="translate(-6.494 149.553)"/></svg>